<?xml version="1.0" encoding="UTF-8"?>
<svg width="256px" height="64px" viewBox="0 0 256 64" version="1.1" xmlns="http://www.w3.org/2000/svg" xmlns:xlink="http://www.w3.org/1999/xlink">
    <!-- Generator: Sketch 52.6 (67491) - http://www.bohemiancoding.com/sketch -->
    <title>logo-slv</title>
    <desc>Created with Sketch.</desc>
    <g id="Page-1" stroke="none" stroke-width="1" fill="none" fill-rule="evenodd">
        <g id="768x1024_f3" transform="translate(-136.000000, -835.000000)" fill="#231F20" fill-rule="nonzero">
            <path d="M232.838157,865.963608 L232.832094,865.969704 C234.30531,866.457416 237.512433,867.603539 237.512433,871.51133 C237.512433,875.419122 234.523564,877.248041 231.722635,877.248041 C228.614273,877.30685 226.030149,874.854646 225.908587,871.730801 L229.382466,871.730801 C229.552219,873.529238 230.734429,874.138878 231.746886,874.138878 C232.373626,874.175373 232.98846,873.955787 233.451901,873.529938 C233.915342,873.104089 234.188104,872.508076 234.208308,871.877114 C234.208308,870.048195 233.026098,869.682411 230.80718,868.828915 C229.437029,868.298528 226.56335,867.445032 226.56335,863.653073 C226.554445,862.268176 227.106393,860.939268 228.09219,859.972127 C229.077988,859.004986 230.41274,858.482901 231.789324,858.526002 C234.641532,858.504911 236.987503,860.779993 237.069862,863.646976 L233.692985,863.646976 C233.547483,862.043623 232.583527,861.629068 231.692322,861.629068 C231.205932,861.615474 230.735421,861.803795 230.391358,862.149775 C230.047296,862.495754 229.860019,862.968887 229.873538,863.457988 C229.873538,865.012569 231.019372,865.353968 232.838157,865.963608 Z M245.490835,876.876161 L242.18671,876.876161 L242.18671,862.000949 L238.882584,862.000949 L238.882584,858.891785 L248.819211,858.891785 L248.819211,862.000949 L245.490835,862.000949 L245.490835,876.876161 Z M255.033392,869.097156 L259.13172,869.097156 L257.106806,863.610398 L257.058305,863.610398 L255.033392,869.097156 Z M258.386018,858.891785 L265.849098,876.876161 L262.211528,876.876161 L260.307867,872.236802 L253.917871,872.236802 L252.008147,876.876161 L248.370577,876.876161 L255.803344,858.891785 L258.386018,858.891785 Z M268.831905,876.876161 L268.831905,862.000949 L265.527779,862.000949 L265.527779,858.891785 L275.464406,858.891785 L275.464406,862.000949 L272.13603,862.000949 L272.13603,876.876161 L268.831905,876.876161 Z M277.549946,876.876161 L277.549946,858.891785 L287.153128,858.891785 L287.153128,862.000949 L280.854071,862.000949 L280.854071,866.402548 L286.886373,866.402548 L286.886373,869.511712 L280.854071,869.511712 L280.854071,873.766998 L287.153128,873.766998 L287.153128,876.876161 L277.549946,876.876161 Z M307.123384,873.766998 L307.123384,876.876161 L298.362904,876.876161 L298.362904,858.891785 L301.673092,858.891785 L301.673092,873.766998 L307.123384,873.766998 Z M309.972813,858.891785 L313.276938,858.891785 L313.276938,876.882257 L309.972813,876.882257 L309.972813,858.891785 Z M321.87979,873.766998 C322.534552,873.766998 325.214228,873.766998 325.214228,871.407691 C325.214228,870.68222 324.850471,868.999614 321.952541,868.999614 L320.218633,868.999614 L320.218633,873.766998 L321.87979,873.766998 Z M320.218633,862.000949 L320.218633,865.890451 L321.303841,865.890451 C322.073793,865.890451 324.15327,865.890451 324.15327,863.9457 C324.15327,862.87883 323.474258,862.000949 321.594847,862.000949 L320.218633,862.000949 Z M328.518354,871.529619 L328.518354,871.566198 C328.539093,873.273319 327.70541,874.876679 326.299436,875.833677 C324.947473,876.778618 322.849808,876.900546 321.691849,876.900546 L316.914508,876.900546 L316.914508,858.916171 L320.436887,858.916171 C322.4133,858.916171 324.389712,858.916171 325.935679,860.300054 C326.873404,861.164489 327.422474,862.374335 327.457396,863.653073 C327.508398,865.084253 326.72414,866.413724 325.45067,867.054863 C326.63288,867.493804 328.518354,868.48142 328.518354,871.529619 Z M334.483967,867.493804 L336.605883,867.4999 C339.33406,867.4999 339.788756,865.731945 339.788756,864.732135 C339.788756,863.732326 339.188557,862.007045 336.605883,862.007045 L334.483967,862.007045 L334.483967,867.493804 Z M338.412542,870.243279 L343.280822,876.876161 L339.279496,876.876161 L334.550656,869.999423 L334.502155,869.999423 L334.502155,876.870064 L331.19803,876.870064 L331.19803,858.885689 L336.654384,858.885689 C338.703548,858.885689 339.982759,859.275859 340.995216,860.104969 C342.316195,861.159749 343.088149,862.761617 343.092881,864.457797 C343.089641,866.059218 342.478056,867.598882 341.383224,868.761855 C340.557804,869.53634 339.525222,870.05127 338.412542,870.243279 Z M353.472079,863.579916 L351.447165,869.066674 L355.545493,869.066674 L353.52058,863.579916 L353.472079,863.579916 Z M356.727703,872.236802 L350.331644,872.236802 L348.42192,876.876161 L344.784351,876.876161 L352.217117,858.891785 L354.799792,858.891785 L362.268934,876.876161 L358.631365,876.876161 L356.727703,872.236802 Z M367.410032,862.000949 L367.410032,867.493804 L369.53801,867.493804 C372.260124,867.493804 372.720883,865.725848 372.720883,864.726039 C372.720883,863.726229 372.114621,862.000949 369.53801,862.000949 L367.410032,862.000949 Z M367.410032,869.999423 L367.434282,876.870064 L364.130157,876.870064 L364.130157,858.885689 L369.586511,858.885689 C371.635675,858.885689 372.914887,859.275859 373.927343,860.104969 C375.248323,861.159749 376.020276,862.761617 376.025008,864.457797 C376.019517,866.059935 375.405806,867.599491 374.309288,868.761855 C373.485326,869.534992 372.455087,870.049804 371.344669,870.243279 L376.194762,876.876161 L372.187373,876.876161 L367.458533,869.999423 L367.410032,869.999423 Z M382.815138,876.876161 L382.815138,870.243279 L376.952588,858.891785 L380.565907,858.891785 L384.452044,867.152405 L388.362431,858.891785 L392,858.891785 L386.119263,870.243279 L386.119263,876.876161 L382.815138,876.876161 Z M215.984086,894.299668 L220.785677,880.613253 L224.259556,880.613253 L217.336049,898.603725 L214.638185,898.603725 L207.690428,880.613253 L211.164306,880.613253 L215.935585,894.299668 L215.984086,894.299668 Z M226.399659,880.613253 L229.703784,880.613253 L229.703784,898.603725 L226.399659,898.603725 L226.399659,880.613253 Z M241.786577,883.356632 L241.786577,883.362729 C238.894709,883.362729 235.972529,885.990277 235.972529,889.587152 C235.972529,892.964556 238.749207,895.860346 241.907829,895.860346 C244.2965,895.860346 245.599962,894.452078 246.394165,893.598582 L250.2318,893.598582 C248.763324,896.858082 245.539117,898.9568 241.980581,898.969509 C236.835121,898.912904 232.687976,894.712785 232.668403,889.53838 C232.711279,884.426111 236.823862,880.293325 241.907829,880.253566 C245.549915,880.236508 248.856083,882.39067 250.328802,885.740324 L246.563918,885.740324 C245.417866,884.252804 243.657773,883.374592 241.786577,883.356632 Z M261.290011,880.613253 L261.290011,883.722416 L257.961635,883.722416 L257.961635,898.603725 L254.65751,898.603725 L254.65751,883.722416 L251.347322,883.722416 L251.347322,880.613253 L261.290011,880.613253 Z M277.337754,889.629826 C277.365319,887.993492 276.745207,886.413189 275.613882,885.236686 C274.482557,884.060183 272.932726,883.383889 271.305452,883.356632 C267.976465,883.341303 265.257924,886.028095 265.215566,889.375397 C265.173207,892.722698 267.822879,895.478181 271.151176,895.548038 C274.479473,895.617895 277.241177,892.97599 277.337754,889.629826 Z M261.975086,889.629826 C261.960515,887.13477 262.938073,884.737312 264.690319,882.970722 C266.442565,881.204132 268.824192,880.214908 271.305452,880.223084 C276.460236,880.219728 280.642346,884.417879 280.647919,889.601386 C280.653491,894.784893 276.480418,898.992127 271.325638,898.999978 C266.170858,899.007829 261.985129,894.813327 261.975086,889.629826 Z M286.892436,889.215271 L289.014351,889.221368 C291.742528,889.221368 292.203287,887.453412 292.203287,886.453603 C292.203287,885.453793 291.597026,883.728513 289.014351,883.728513 L286.892436,883.728513 L286.892436,889.215271 Z M293.791692,890.477226 C292.97049,891.240565 291.947211,891.748704 290.845261,891.940361 L295.695354,898.573243 L291.687965,898.573243 L286.959125,891.696505 L286.910624,891.696505 L286.910624,898.622014 L283.606498,898.622014 L283.606498,880.637639 L289.062852,880.637639 C291.118079,880.637639 292.397291,881.033905 293.409748,881.856918 C294.730727,882.911699 295.50268,884.513567 295.507412,886.209747 C295.492703,887.799223 294.879647,889.324065 293.791692,890.477226 Z M298.623597,880.613253 L301.927722,880.613253 L301.927722,898.603725 L298.623597,898.603725 L298.623597,880.613253 Z M310.700327,890.82472 L314.798655,890.82472 L312.773741,885.301383 L312.72524,885.301383 L310.700327,890.82472 Z M314.052953,880.613253 L321.516033,898.603725 L317.878464,898.603725 L315.974802,893.958269 L309.584806,893.958269 L307.675082,898.603725 L304.037512,898.603725 L311.470279,880.613253 L314.052953,880.613253 Z M143.535831,836.396075 L145.542557,835.225567 L145.542557,844.053152 L143.535831,845.22366 L143.535831,836.396075 Z M152.581253,889.294524 L161.432672,884.149164 L164.62767,886.008566 L155.782314,891.160022 L152.581253,889.294524 Z M150.81097,890.324816 L154.012031,892.190314 L145.160612,897.335674 L141.965614,895.476272 L150.81097,890.324816 Z M164.288164,889.92855 L167.828731,887.867967 L171.023729,889.733465 L167.489225,891.787951 L164.288164,889.92855 Z M151.90224,897.134493 L162.51788,890.958841 L165.718941,892.818243 L155.097239,898.999991 L151.90224,897.134493 Z M166.355516,884.825864 L166.355516,880.015806 L172.800076,883.758995 L172.800076,888.575149 L166.355516,884.825864 Z M154.363662,835 L158.959125,837.670223 L158.959125,841.29758 L154.363662,838.627357 L154.363662,835 Z M172.830389,845.717468 L172.830389,849.344826 L161.305357,842.644884 L161.305357,839.01143 L172.830389,845.717468 Z M198.614692,862.04972 L198.614692,864.348062 L193.637285,861.452273 L193.637285,859.153931 L198.614692,862.04972 Z M191.976128,858.184603 L191.976128,860.489042 L190.10278,859.379497 L190.10278,857.111637 L191.976128,858.184603 Z M177.559229,866.658597 L177.559229,864.354158 L191.394117,872.413597 L191.394117,874.711939 L177.559229,866.658597 Z M182.094065,876.583534 L182.094065,874.285192 L187.792924,877.601632 L187.792924,879.887782 L187.780799,879.893878 L182.094065,876.583534 Z M188.314309,863.33606 L188.314309,865.640499 L183.821911,863.012951 L183.821911,860.720705 L188.314309,863.33606 Z M189.975465,864.305387 L200.287974,870.298147 L200.287974,872.596489 L189.975465,866.603729 L189.975465,864.305387 Z M154.375787,860.482945 L154.375787,864.122495 L181.493866,879.899974 L181.493866,883.527332 L181.481741,883.533428 L154.369725,867.762045 L148.719367,871.048004 L148.719367,863.48847 L150.174395,862.64107 L150.174395,841.401218 L154.375787,838.956563 L154.375787,842.2791 L172.787951,852.990472 L172.787951,856.630022 L154.375787,845.91865 L154.375787,846.040578 L154.375787,849.558199 L172.787951,860.269572 L172.787951,863.915218 L154.375787,853.203846 L154.375787,856.843396 L179.74177,871.59668 L179.74177,875.242326 L154.375787,860.482945 Z M147.555345,886.776712 L143.34789,884.332056 L142.359684,884.905118 L142.359684,876.687172 L145.542557,874.833867 L145.542557,883.033523 L148.719367,881.180218 L148.719367,877.650403 L150.174395,876.803004 L150.174395,873.267093 L154.363662,870.828534 L158.328613,873.108587 L158.328613,875.37035 L162.323876,877.693078 L162.323876,882.503137 L154.375787,877.882067 L154.393975,877.894259 L152.514564,878.985515 L158.189173,882.289763 L155.133614,884.069911 L153.672524,883.216415 L147.555345,886.776712 Z M145.542557,856.404455 L145.542557,872.791574 L142.359684,874.638783 L142.359684,858.25776 L145.542557,856.404455 Z M145.542557,845.52848 L145.542557,854.356065 L143.535831,855.526574 L143.535831,846.698989 L145.542557,845.52848 Z M136,884.484466 L139.182873,882.631161 L139.182873,886.752326 L140.298394,886.100012 L145.985128,889.410356 L142.929569,891.190504 L141.468479,890.337009 L140.225643,891.068576 L136.006063,888.617824 L136,888.623921 L136,884.484466 Z M136,868.097347 L139.182873,866.250138 L139.182873,880.582771 L136,882.436076 L136,868.097347 Z M139.182873,850.966467 L139.182873,864.201748 L137.170085,865.372257 L137.170085,852.13088 L139.182873,850.966467 Z M139.182873,845.077347 L139.182873,849.485043 L137.170085,850.655551 L137.170085,846.247855 L139.182873,845.077347 Z" id="logo-slv"></path>
        </g>
    </g>
</svg>