<?xml version="1.0" encoding="UTF-8"?>
<svg width="160px" height="50px" viewBox="0 0 160 50" version="1.1" xmlns="http://www.w3.org/2000/svg" xmlns:xlink="http://www.w3.org/1999/xlink">
    <!-- Generator: Sketch 52.6 (67491) - http://www.bohemiancoding.com/sketch -->
    <title>logo-CV</title>
    <desc>Created with Sketch.</desc>
    <g id="Page-1" stroke="none" stroke-width="1" fill="none" fill-rule="evenodd">
        <g id="768x1024_f3" transform="translate(-473.000000, -849.000000)" fill="#231F20">
            <path d="M584.579916,867.538981 L582.234859,872.797831 L580.593976,871.774708 C580.1278,872.603923 579.254579,873.120835 578.303896,873.130346 C576.818606,873.066514 575.647286,871.842898 575.647286,870.355126 C575.647286,868.867354 576.818606,867.643738 578.303896,867.579906 C579.249124,867.594486 580.117837,868.102908 580.593976,868.920196 L583.083415,867.385513 C582.111112,865.655696 580.287073,864.579976 578.303896,864.56681 C576.770933,864.554107 575.297948,865.162147 574.219734,866.252729 C573.14152,867.343312 572.549667,868.823795 572.578696,870.357684 C572.549637,871.89111 573.141647,873.37109 574.220018,874.460868 C575.298389,875.550646 576.771406,876.157535 578.303896,876.143442 C579.280306,876.141951 580.237958,875.874952 581.074484,875.370984 L570.523759,899 L560.208176,875.903008 L562.344902,875.903008 L567.29311,864.827706 L563.990897,864.827706 L561.261203,870.879476 L558.557069,864.827706 L555.265079,864.827706 L548.19548,849 L592.846925,849 L585.788943,864.827706 L592.821367,864.827706 L592.821367,867.538981 L589.88209,867.538981 L589.88209,875.87743 L586.958149,875.87743 L586.958149,867.538981 L584.579916,867.538981 Z M599.420682,873.120115 C600.93318,873.092123 602.141392,871.851067 602.129928,870.337221 C602.129553,869.205209 601.444024,868.186229 600.396094,867.760025 C599.348164,867.333821 598.146685,867.585337 597.357324,868.396156 C596.567962,869.206975 596.348038,870.415501 596.801094,871.45275 C597.25415,872.489999 598.28989,873.149247 599.420682,873.120115 Z M599.420682,864.536116 C600.963068,864.518077 602.447475,865.123636 603.5377,866.21564 C604.627925,867.307645 605.231721,868.793696 605.212334,870.337221 C605.212334,872.684014 603.799443,874.799631 601.632713,875.697231 C599.465983,876.594831 596.972291,876.097575 595.31483,874.43741 C593.65737,872.777244 593.162686,870.281247 594.061526,868.113687 C594.960366,865.946128 597.075645,864.534047 599.420682,864.536116 Z M611.627625,870.147944 C612.287045,870.147944 612.716435,869.390833 612.716435,868.848578 C612.716435,868.306323 612.287045,867.538981 611.627625,867.538981 L609.6647,867.538981 L609.6647,870.147944 L611.627625,870.147944 Z M615.686383,868.848578 L615.665936,868.848578 C615.642144,870.193782 614.947628,871.437935 613.815469,872.163495 L615.635265,875.87743 L612.353499,875.87743 L611.019323,872.874565 L609.6647,872.874565 L609.6647,875.87743 L606.735646,875.87743 L606.735646,864.827706 L611.627625,864.827706 C612.704449,864.80261 613.745173,865.216819 614.510655,865.975156 C615.276138,866.733493 615.700555,867.770749 615.686383,868.848578 Z M617.782215,864.827706 L620.706156,864.827706 L620.706156,875.87743 L617.782215,875.87743 L617.782215,864.827706 Z M627.458825,869.851238 L626.554039,871.999795 L628.430064,871.999795 L627.520166,869.851238 L627.458825,869.851238 Z M626.947646,864.827706 L628.067127,864.827706 L633,875.87743 L629.835805,875.87743 L629.324626,874.624105 L625.664588,874.624105 L625.153409,875.87743 L622.014773,875.87743 L626.947646,864.827706 Z M571.21385,875.903008 L571.21385,864.827706 L568.146778,864.827706 L568.146778,875.903008 L571.21385,875.903008 Z M473.001116,870.342337 C472.970718,868.805751 473.562335,867.322128 474.641506,866.228662 C475.720676,865.135196 477.195732,864.524768 478.731428,864.536116 C480.718276,864.550601 482.544697,865.63048 483.516059,867.36505 L481.026619,868.899734 C480.553925,868.073768 479.682381,867.557055 478.731428,867.538981 C477.240577,867.602934 476.064813,868.831095 476.064813,870.324432 C476.064813,871.817769 477.240577,873.045931 478.731428,873.109883 C479.68153,873.103239 480.556139,872.590557 481.026619,871.764477 L483.516059,873.299161 C482.544697,875.033731 480.718276,876.11361 478.731428,876.128095 C477.198915,876.140733 475.726233,875.533549 474.647369,874.444246 C473.568505,873.354943 472.974878,871.875824 473.001116,870.342337 Z M490.739012,867.533865 L488.796533,867.533865 L488.796533,870.142828 L490.739012,870.142828 C491.39332,870.142828 491.817598,869.390833 491.817598,868.848578 C491.817598,868.306323 491.403544,867.533865 490.739012,867.533865 Z M492.921744,872.137917 L494.721092,875.851852 L491.475109,875.851852 L490.16138,872.848987 L488.796533,872.848987 L488.796533,875.851852 L485.908374,875.851852 L485.908374,864.827706 L490.739012,864.827706 C491.809629,864.809482 492.841686,865.227423 493.598354,865.985623 C494.355022,866.743822 494.771336,867.777183 494.751763,868.848578 C494.733296,870.18488 494.053416,871.424914 492.937079,872.158379 L492.921744,872.137917 Z M505.200253,873.166155 L505.200253,875.872314 L497.220755,875.872314 L497.220755,864.827706 L505.200253,864.827706 L505.200253,867.538981 L500.114026,867.538981 L500.114026,869.012277 L504.223902,869.012277 L504.223902,871.692859 L500.114026,871.692859 L500.114026,873.166155 L505.200253,873.166155 Z M512.269852,869.851238 L512.213622,869.851238 L511.339507,872.020258 L513.097961,872.020258 L512.269852,869.851238 Z M517.555438,875.87743 L514.437249,875.87743 L513.956741,874.624105 L510.526733,874.624105 L510.015554,875.87743 L506.897365,875.87743 L511.533755,864.827706 L512.908825,864.827706 L517.555438,875.87743 Z M523.607792,867.538981 L523.607792,875.87743 L520.714521,875.87743 L520.714521,867.538981 L517.811027,867.538981 L517.811027,864.827706 L526.516398,864.827706 L526.516398,867.538981 L523.607792,867.538981 Z M528.566224,864.827706 L531.459494,864.827706 L531.459494,875.87743 L528.566224,875.87743 L528.566224,864.827706 Z M539.367426,875.87743 L537.977021,875.87743 L533.539991,864.827706 L536.65818,864.827706 L538.646665,869.968897 L538.702894,869.968897 L540.686267,864.827706 L543.794233,864.827706 L539.367426,875.87743 Z M553.890009,873.161039 L553.890009,875.867199 L545.915623,875.867199 L545.915623,864.832822 L553.890009,864.832822 L553.890009,867.538981 L548.803782,867.538981 L548.803782,869.012277 L552.913658,869.012277 L552.913658,871.687743 L548.803782,871.687743 L548.803782,873.161039 L553.890009,873.161039 Z" id="logo-CV"></path>
        </g>
    </g>
</svg>